<svg width="276" height="91" viewBox="0 0 276 91" fill="none" xmlns="http://www.w3.org/2000/svg">
<mask id="path-1-outside-1_542_74" maskUnits="userSpaceOnUse" x="0" y="0" width="276" height="91" fill="black">
<rect fill="white" width="276" height="91"/>
<path d="M262 3V8H267V16H273V75H267V83H262V88H14V83H9V75H3V16H9V8H14V3H262Z"/>
</mask>
<path d="M262 3V8H267V16H273V75H267V83H262V88H14V83H9V75H3V16H9V8H14V3H262Z" fill="#1F244C"/>
<path d="M262 3H265V0H262V3ZM262 8H259V11H262V8ZM267 8H270V5H267V8ZM267 16H264V19H267V16ZM273 16H276V13H273V16ZM273 75V78H276V75H273ZM267 75V72H264V75H267ZM267 83V86H270V83H267ZM262 83V80H259V83H262ZM262 88V91H265V88H262ZM14 88H11V91H14V88ZM14 83H17V80H14V83ZM9 83H6V86H9V83ZM9 75H12V72H9V75ZM3 75H0V78H3V75ZM3 16V13H0V16H3ZM9 16V19H12V16H9ZM9 8V5H6V8H9ZM14 8V11H17V8H14ZM14 3V0H11V3H14ZM262 3H259V8H262H265V3H262ZM262 8V11H267V8V5H262V8ZM267 8H264V16H267H270V8H267ZM267 16V19H273V16V13H267V16ZM273 16H270V75H273H276V16H273ZM273 75V72H267V75V78H273V75ZM267 75H264V83H267H270V75H267ZM267 83V80H262V83V86H267V83ZM262 83H259V88H262H265V83H262ZM262 88V85H14V88V91H262V88ZM14 88H17V83H14H11V88H14ZM14 83V80H9V83V86H14V83ZM9 83H12V75H9H6V83H9ZM9 75V72H3V75V78H9V75ZM3 75H6V16H3H0V75H3ZM3 16V19H9V16V13H3V16ZM9 16H12V8H9H6V16H9ZM9 8V11H14V8V5H9V8ZM14 8H17V3H14H11V8H14ZM14 3V6H262V3V0H14V3Z" fill="white" fill-opacity="0.5" mask="url(#path-1-outside-1_542_74)"/>
</svg>
