<svg width="856" height="91" viewBox="0 0 856 91" fill="none" xmlns="http://www.w3.org/2000/svg">
<mask id="path-1-outside-1_542_48" maskUnits="userSpaceOnUse" x="0" y="0" width="856" height="91" fill="black">
<rect fill="white" width="856" height="91"/>
<path d="M842 3V8H847V16H853V75H847V83H842V88H14V83H9V75H3V16H9V8H14V3H842Z"/>
</mask>
<path d="M842 3V8H847V16H853V75H847V83H842V88H14V83H9V75H3V16H9V8H14V3H842Z" fill="url(#paint0_linear_542_48)"/>
<path d="M842 3H845V0H842V3ZM842 8H839V11H842V8ZM847 8H850V5H847V8ZM847 16H844V19H847V16ZM853 16H856V13H853V16ZM853 75V78H856V75H853ZM847 75V72H844V75H847ZM847 83V86H850V83H847ZM842 83V80H839V83H842ZM842 88V91H845V88H842ZM14 88H11V91H14V88ZM14 83H17V80H14V83ZM9 83H6V86H9V83ZM9 75H12V72H9V75ZM3 75H0V78H3V75ZM3 16V13H0V16H3ZM9 16V19H12V16H9ZM9 8V5H6V8H9ZM14 8V11H17V8H14ZM14 3V0H11V3H14ZM842 3H839V8H842H845V3H842ZM842 8V11H847V8V5H842V8ZM847 8H844V16H847H850V8H847ZM847 16V19H853V16V13H847V16ZM853 16H850V75H853H856V16H853ZM853 75V72H847V75V78H853V75ZM847 75H844V83H847H850V75H847ZM847 83V80H842V83V86H847V83ZM842 83H839V88H842H845V83H842ZM842 88V85H14V88V91H842V88ZM14 88H17V83H14H11V88H14ZM14 83V80H9V83V86H14V83ZM9 83H12V75H9H6V83H9ZM9 75V72H3V75V78H9V75ZM3 75H6V16H3H0V75H3ZM3 16V19H9V16V13H3V16ZM9 16H12V8H9H6V16H9ZM9 8V11H14V8V5H9V8ZM14 8H17V3H14H11V8H14ZM14 3V6H842V3V0H14V3Z" fill="white" fill-opacity="0.5" mask="url(#path-1-outside-1_542_48)"/>
<defs>
<linearGradient id="paint0_linear_542_48" x1="3" y1="45.5" x2="853" y2="45.5" gradientUnits="userSpaceOnUse">
<stop stop-color="#1F244C"/>
<stop offset="1" stop-color="#1F244C"/>
</linearGradient>
</defs>
</svg>
