<svg width="1577" height="37" viewBox="0 0 1577 37" fill="none" xmlns="http://www.w3.org/2000/svg">
<path d="M2.5 19.18H632.5" stroke="url(#paint0_linear_556_2783)" stroke-width="5" stroke-linecap="round"/>
<path d="M944 19.18H1574" stroke="url(#paint1_linear_556_2783)" stroke-width="5" stroke-linecap="round"/>
<path d="M700.674 27.68H698.394H696.074V25.36V23.08V20.76V18.44V16.16V13.84V11.52V9.19999V6.91999V4.59999V2.27999H698.394H700.674H702.994H705.314H707.594H709.914H712.234H714.514H716.834V4.59999H714.514V6.91999H712.234H709.914H707.594H705.314H702.994V9.19999V11.52H705.314H707.594H709.914H712.234V13.84H709.914V16.16H707.594H705.314H702.994V18.44V20.76V23.08H705.314H707.594H709.914H712.234H714.514V25.36H716.834V27.68H714.514H712.234H709.914H707.594H705.314H702.994H700.674ZM735.048 9.19999H737.368H739.648V11.52V13.84H737.368V16.12H735.048V18.44V20.76H737.368V23.04H739.648V25.36V27.68H737.368H735.048H732.728V25.36V23.04V20.76V18.44H730.408H728.128H725.808V20.76V23.04V25.36V27.68H723.488H721.208H718.888V25.36V23.04V20.76V18.44V16.12V13.84V11.52V9.19999V6.91999V4.59999V2.27999V-8.58307e-06H721.208H723.488H725.808V2.27999V4.59999V6.91999V9.19999V11.52V13.84V16.12H728.128H730.408H732.728V13.84V11.52V9.19999H735.048ZM757.821 9.23999V11.52H760.141V13.84V16.16H757.821H755.501V13.84V11.52H753.181H750.901H748.581V13.84H750.901V16.16H753.181V18.44H755.501V20.76H757.821V23.08H760.141V25.36H757.821V27.68H755.501H753.181H750.901H748.581H746.261H743.981V25.36H741.661V23.08V20.76H743.981H746.261V23.08V25.36H748.581H750.901H753.181V23.08H750.901V20.76H748.581V18.44H746.261V16.16H743.981V13.84H741.661V11.52H743.981V9.23999H746.261H748.581H750.901H753.181H755.501H757.821ZM773.65 25.36H775.97V23.04V20.76V18.44V16.12V13.84V11.52H773.65H771.37H769.05V13.84V16.12V18.44V20.76V23.04V25.36H771.37H773.65ZM780.61 11.52V13.84H782.89V16.12V18.44V20.76V23.04H780.61V25.36H778.29V27.68H775.97H773.65H771.37H769.05V30V32.28V34.6V36.92H766.73H764.45H762.13V34.6V32.28V30V27.68V25.36V23.04V20.76V18.44V16.12V13.84V11.52V9.19999H764.45H766.73H769.05H771.37H773.65H775.97H778.29V11.52H780.61ZM789.463 27.8H787.183H784.863V25.52V23.2V20.88V18.6V16.28V13.96V11.64V9.35999V7.03999V4.71999V2.43999V0.119992H787.183H789.463H791.783V2.43999V4.71999V7.03999V9.35999V11.64V13.96V16.28V18.6V20.88V23.2V25.52H794.103H796.383V27.8H794.103H791.783H789.463ZM805.299 23.04V25.36H807.619H809.899H812.219V23.04V20.76V18.44V16.12V13.84V11.52H809.899H807.619H805.299V13.84V16.12V18.44V20.76V23.04ZM805.299 27.68H802.979V25.36H800.699V23.04H798.379V20.76V18.44V16.12V13.84H800.699V11.52H802.979V9.19999H805.299H807.619H809.899H812.219H814.539V11.52H816.859V13.84H819.139V16.12V18.44V20.76V23.04H816.859V25.36H814.539V27.68H812.219H809.899H807.619H805.299ZM839.632 9.23999V11.52H841.912V13.84V16.16H839.632H837.312V13.84V11.52H834.992H832.672H830.392V13.84V16.16V18.44V20.76V23.08V25.36V27.68H828.072H825.752H823.472V25.36V23.08V20.76V18.44V16.16V13.84V11.52H821.152V9.23999H823.472H825.752H828.072H830.392H832.672H834.992H837.312H839.632Z" fill="white" fill-opacity="0.5"/>
<defs>
<linearGradient id="paint0_linear_556_2783" x1="2.5" y1="19.68" x2="632.5" y2="19.68" gradientUnits="userSpaceOnUse">
<stop stop-color="white" stop-opacity="0"/>
<stop offset="0.5" stop-color="white"/>
<stop offset="1" stop-color="white" stop-opacity="0"/>
</linearGradient>
<linearGradient id="paint1_linear_556_2783" x1="944" y1="19.68" x2="1574" y2="19.68" gradientUnits="userSpaceOnUse">
<stop stop-color="white" stop-opacity="0"/>
<stop offset="0.5" stop-color="white"/>
<stop offset="1" stop-color="white" stop-opacity="0"/>
</linearGradient>
</defs>
</svg>
