<svg width="295" height="270" viewBox="0 0 295 270" fill="none" xmlns="http://www.w3.org/2000/svg">
<rect x="0.5" y="0.5" width="294" height="269" rx="35.5" fill="url(#paint0_linear_752_11)" stroke="#6B50C4"/>
<mask id="path-2-outside-1_752_11" maskUnits="userSpaceOnUse" x="0" y="0" width="295" height="54" fill="black">
<rect fill="white" width="295" height="54"/>
<path d="M259 1C278.33 1 294 16.67 294 36V53.4189C294 34.0892 278.33 18.4189 259 18.4189H36C16.6702 18.4189 1.00022 34.0892 1 53.4189V36C1 16.67 16.67 1 36 1H259Z"/>
</mask>
<path d="M259 1C278.33 1 294 16.67 294 36V53.4189C294 34.0892 278.33 18.4189 259 18.4189H36C16.6702 18.4189 1.00022 34.0892 1 53.4189V36C1 16.67 16.67 1 36 1H259Z" fill="#6B50C4"/>
<path d="M294 36H295V36H294ZM294 53.4189L293 53.419L295 53.4189H294ZM1 53.4189H0L2 53.419L1 53.4189ZM259 1V2C277.778 2 293 17.2223 293 36H294H295C295 16.1178 278.882 0 259 0V1ZM294 36H293V53.4189H294H295V36H294ZM294 53.4189L295 53.4189C295 33.5369 278.882 17.4189 259 17.4189V18.4189V19.4189C277.778 19.4189 293 34.6414 293 53.419L294 53.4189ZM259 18.4189V17.4189H36V18.4189V19.4189H259V18.4189ZM36 18.4189V17.4189C16.1179 17.4189 0.000228167 33.5369 0 53.4189L1 53.4189L2 53.419C2.00022 34.6414 17.2225 19.4189 36 19.4189V18.4189ZM1 53.4189H2V36H1H0V53.4189H1ZM1 36H2C2 17.2223 17.2223 2 36 2V1V0C16.1177 0 0 16.1177 0 36H1ZM36 1V2H259V1V0H36V1Z" fill="#6B50C4" mask="url(#path-2-outside-1_752_11)"/>
<defs>
<linearGradient id="paint0_linear_752_11" x1="147.5" y1="1" x2="147.5" y2="269" gradientUnits="userSpaceOnUse">
<stop stop-color="#2F3576"/>
<stop offset="1" stop-color="#0A0B19"/>
</linearGradient>
</defs>
</svg>
