<svg width="316" height="48" viewBox="0 0 316 48" fill="none" xmlns="http://www.w3.org/2000/svg">
<path d="M23.6054 1.23869e-05C27.1042 -0.00360525 30.56 0.785225 33.7216 2.3092C36.8831 3.83317 39.6711 6.05402 41.883 8.81041L26.9431 24L41.883 39.1896C39.6711 41.946 36.8831 44.1668 33.7216 45.6908C30.56 47.2148 27.1042 48.0036 23.6054 48C10.5681 48 0 37.2552 0 24C0 10.7448 10.5681 1.23869e-05 23.6054 1.23869e-05ZM23.6054 7.20001C22.6663 7.20001 21.7657 7.57929 21.1016 8.25442C20.4376 8.92955 20.0645 9.84523 20.0645 10.8C20.0645 11.7548 20.4376 12.6705 21.1016 13.3456C21.7657 14.0207 22.6663 14.4 23.6054 14.4C24.5444 14.4 25.445 14.0207 26.1091 13.3456C26.7731 12.6705 27.1462 11.7548 27.1462 10.8C27.1462 9.84523 26.7731 8.92955 26.1091 8.25442C25.445 7.57929 24.5444 7.20001 23.6054 7.20001Z" fill="white"/>
<path d="M55.0854 37.9906V34.7579H51.8501V11.8455H55.0854V8.55612H58.2649V5.26671H77.621V8.55612H80.8005V11.8455H84.0358V18.3676H74.3857V11.8455H61.5002V34.7579H74.3857V28.1791H64.7355V21.657H84.0358V34.7579H80.8005V37.9906H77.621V41.28H58.2649V37.9906H55.0854Z" fill="white"/>
<path d="M102.887 37.9906V31.4685H93.2371V37.9906H102.887ZM102.887 18.3676H93.2371V24.8897H86.8223V18.3676H90.0576V15.0782H106.123V18.3676H109.358V21.657H112.537V41.28H90.0576V37.9906H86.8223V31.4685H90.0576V28.1791H102.887V18.3676Z" fill="white"/>
<path d="M163.619 18.3676V21.657H166.854V41.28H157.204V18.3676H147.554V41.28H137.904V18.3676H128.253V41.28H118.603V18.3676H115.368V15.0782H141.083V18.3676H144.318V15.0782H160.439V18.3676H163.619Z" fill="white"/>
<path d="M179.274 18.3676V24.8897H188.924V18.3676H179.274ZM179.274 37.9906H188.924V31.4685H195.395V37.9906H192.16V41.28H176.039V37.9906H172.859V34.7579H169.624V21.657H172.859V18.3676H176.039V15.0782H192.16V18.3676H195.395V28.1791H179.274V37.9906Z" fill="white"/>
<path d="M198.112 41.28V5.26671H204.527V8.55612H207.763V11.8455H210.998V15.0782H214.177V18.3676H217.413V21.657H220.648V8.55612H223.828V5.26671H230.298V41.28H220.648V31.4685H217.413V28.1791H214.177V24.9464H210.998V21.657H207.763V41.28H198.112Z" fill="white"/>
<path d="M242.791 18.3676V24.8897H252.441V18.3676H242.791ZM242.791 37.9906H252.441V31.4685H258.911V37.9906H255.676V41.28H239.555V37.9906H236.376V34.7579H233.14V21.657H236.376V18.3676H239.555V15.0782H255.676V18.3676H258.911V28.1791H242.791V37.9906Z" fill="white"/>
<path d="M284.22 15.1349V18.3676H287.456V24.9464H280.985V18.3676H271.335V21.657H274.57V24.9464H277.75V28.1791H280.985V31.4685H284.22V34.7579H287.456V37.9906H284.22V41.28H264.92V37.9906H261.685V31.4685H268.1V37.9906H277.75V34.7579H274.57V31.4685H271.335V28.1791H268.1V24.9464H264.92V21.657H261.685V18.3676H264.92V15.1349H284.22Z" fill="white"/>
<path d="M309.529 31.4685H316V37.9906H312.765V41.28H293.464V37.9906H290.229V15.1349H293.464V11.8455H296.644V8.55612H299.879V15.1349H309.529V18.3676H299.879V37.9906H309.529V31.4685Z" fill="white"/>
</svg>
