<svg width="34" height="37" viewBox="0 0 34 37" fill="none" xmlns="http://www.w3.org/2000/svg">
<path fill-rule="evenodd" clip-rule="evenodd" d="M3.6863 13.3137C3.6863 9.78269 5.08899 6.39629 7.58579 3.89949C10.0826 1.40269 13.469 0 17 0C20.531 0 23.9174 1.40269 26.4142 3.89949C28.911 6.39629 30.3137 9.78269 30.3137 13.3137V20.4727L33.7791 27.4034C33.9386 27.7224 34.0139 28.0769 33.9979 28.4332C33.9819 28.7895 33.875 29.1358 33.6875 29.4391C33.5 29.7425 33.238 29.9929 32.9265 30.1666C32.615 30.3402 32.2642 30.4314 31.9075 30.4313H24.3682C23.9451 32.0636 22.992 33.5093 21.6584 34.5413C20.3248 35.5733 18.6863 36.1333 17 36.1333C15.3137 36.1333 13.6752 35.5733 12.3416 34.5413C11.008 33.5093 10.0549 32.0636 9.63182 30.4313H2.09246C1.7358 30.4314 1.38505 30.3402 1.07352 30.1666C0.761991 29.9929 0.500026 29.7425 0.312506 29.4391C0.124987 29.1358 0.0181403 28.7895 0.00211362 28.4332C-0.0139131 28.0769 0.0614127 27.7224 0.220937 27.4034L3.6863 20.4727V13.3137ZM13.7058 30.4313C14.0397 31.0095 14.5199 31.4897 15.0981 31.8235C15.6764 32.1573 16.3323 32.3331 17 32.3331C17.6677 32.3331 18.3236 32.1573 18.9019 31.8235C19.4801 31.4897 19.9603 31.0095 20.2942 30.4313H13.7058ZM17 3.80391C14.4778 3.80391 12.059 4.80583 10.2756 6.58926C8.49214 8.37269 7.49022 10.7915 7.49022 13.3137V20.4727C7.49018 21.0629 7.35278 21.645 7.0889 22.173L4.86361 26.6274H29.1383L26.913 22.173C26.6485 21.6452 26.5104 21.0631 26.5098 20.4727V13.3137C26.5098 10.7915 25.5079 8.37269 23.7244 6.58926C21.941 4.80583 19.5222 3.80391 17 3.80391Z" fill="white"/>
</svg>
