<svg width="322" height="91" viewBox="0 0 322 91" fill="none" xmlns="http://www.w3.org/2000/svg">
<mask id="path-1-outside-1_731_26" maskUnits="userSpaceOnUse" x="0" y="0" width="322" height="91" fill="black">
<rect fill="white" width="322" height="91"/>
<path d="M309 8H314V13H319V78H314V83H309V88H13V84H8V79H3V13H8V8H13V3H309V8Z"/>
</mask>
<path d="M309 8H314V13H319V78H314V83H309V88H13V84H8V79H3V13H8V8H13V3H309V8Z" fill="#6400DF"/>
<path d="M309 8H306V11H309V8ZM314 8H317V5H314V8ZM314 13H311V16H314V13ZM319 13H322V10H319V13ZM319 78V81H322V78H319ZM314 78V75H311V78H314ZM314 83V86H317V83H314ZM309 83V80H306V83H309ZM309 88V91H312V88H309ZM13 88H10V91H13V88ZM13 84H16V81H13V84ZM8 84H5V87H8V84ZM8 79H11V76H8V79ZM3 79H0V82H3V79ZM3 13V10H0V13H3ZM8 13V16H11V13H8ZM8 8V5H5V8H8ZM13 8V11H16V8H13ZM13 3V0H10V3H13ZM309 3H312V0H309V3ZM309 8V11H314V8V5H309V8ZM314 8H311V13H314H317V8H314ZM314 13V16H319V13V10H314V13ZM319 13H316V78H319H322V13H319ZM319 78V75H314V78V81H319V78ZM314 78H311V83H314H317V78H314ZM314 83V80H309V83V86H314V83ZM309 83H306V88H309H312V83H309ZM309 88V85H13V88V91H309V88ZM13 88H16V84H13H10V88H13ZM13 84V81H8V84V87H13V84ZM8 84H11V79H8H5V84H8ZM8 79V76H3V79V82H8V79ZM3 79H6V13H3H0V79H3ZM3 13V16H8V13V10H3V13ZM8 13H11V8H8H5V13H8ZM8 8V11H13V8V5H8V8ZM13 8H16V3H13H10V8H13ZM13 3V6H309V3V0H13V3ZM309 3H306V8H309H312V3H309Z" fill="#9844FF" mask="url(#path-1-outside-1_731_26)"/>
</svg>
