<svg width="431" height="267" viewBox="0 0 431 267" fill="none" xmlns="http://www.w3.org/2000/svg">
<path d="M47.0449 8.0293H383.13V0H412.145V8.0293H422.145V18.0293H430.174V47.0449H422.145V219.06H430.174V248.075H422.145V258.074H412.145V266.104H383.13V258.074H47.0449V266.104H18.0293V258.074H8.0293V248.075H0V219.06H8.0293V47.0449H0V18.0293H8.0293V8.0293H18.0293V0H47.0449V8.0293ZM28.0293 18.0293H18.0293V28.0293H10V37.0449H18.0293V229.06H10V238.075H18.0293V248.074H28.0293V256.104H37.0449V248.074H393.13V256.104H402.145V248.074H412.145V238.075H420.174V229.06H412.145V37.0449H420.174V28.0293H412.145V18.0293H402.145V10H393.13V18.0293H37.0449V10H28.0293V18.0293ZM28 239H32.0146V243.015H23V234H28V239ZM408.015 234V243.015H399V239H403V234H408.015ZM408.015 32.0146H403V28H399V23H408.015V32.0146ZM32.0146 28H28V32.0146H23V23H32.0146V28Z" fill="white"/>
</svg>
