<svg width="64" height="64" viewBox="0 0 64 64" fill="none" xmlns="http://www.w3.org/2000/svg">
<path d="M34.7415 5.3335C37.7415 5.3415 39.2642 5.3575 40.5789 5.39483L41.0962 5.4135C41.6936 5.43483 42.2829 5.4615 42.9949 5.4935C45.8322 5.62683 47.7682 6.07483 49.4669 6.7335C51.2269 7.41083 52.7095 8.32816 54.1922 9.80816C55.5487 11.1408 56.598 12.7534 57.2669 14.5335C57.9255 16.2322 58.3736 18.1682 58.5069 21.0082C58.5389 21.7175 58.5655 22.3068 58.5869 22.9068L58.6029 23.4242C58.6429 24.7362 58.6589 26.2588 58.6642 29.2588L58.6669 31.2482V34.7415C58.6734 36.6866 58.6529 38.6316 58.6055 40.5762L58.5896 41.0935C58.5682 41.6935 58.5415 42.2828 58.5095 42.9922C58.3762 45.8322 57.9229 47.7655 57.2669 49.4668C56.598 51.2469 55.5487 52.8595 54.1922 54.1922C52.8596 55.5487 51.247 56.598 49.4669 57.2668C47.7682 57.9255 45.8322 58.3735 42.9949 58.5068L41.0962 58.5868L40.5789 58.6028C39.2642 58.6402 37.7415 58.6588 34.7415 58.6642L32.7522 58.6668H29.2615C27.3156 58.6737 25.3696 58.6532 23.4242 58.6055L22.9069 58.5895C22.2738 58.5655 21.6409 58.538 21.0082 58.5068C18.1709 58.3735 16.2349 57.9255 14.5335 57.2668C12.7544 56.5976 11.1427 55.5484 9.81088 54.1922C8.4534 52.8598 7.40317 51.2471 6.73355 49.4668C6.07488 47.7682 5.62688 45.8322 5.49355 42.9922L5.41355 41.0935L5.40021 40.5762C5.35106 38.6317 5.32883 36.6866 5.33355 34.7415V29.2588C5.32617 27.3138 5.34572 25.3687 5.39221 23.4242L5.41088 22.9068C5.43221 22.3068 5.45888 21.7175 5.49088 21.0082C5.62421 18.1682 6.07221 16.2348 6.73088 14.5335C7.40207 12.7527 8.45414 11.14 9.81355 9.80816C11.1446 8.45229 12.7554 7.40303 14.5335 6.7335C16.2349 6.07483 18.1682 5.62683 21.0082 5.4935C21.7175 5.4615 22.3095 5.43483 22.9069 5.4135L23.4242 5.3975C25.3687 5.35012 27.3138 5.32967 29.2589 5.33616L34.7415 5.3335ZM32.0002 18.6668C28.464 18.6668 25.0726 20.0716 22.5721 22.5721C20.0716 25.0726 18.6669 28.4639 18.6669 32.0002C18.6669 35.5364 20.0716 38.9278 22.5721 41.4283C25.0726 43.9287 28.464 45.3335 32.0002 45.3335C35.5364 45.3335 38.9278 43.9287 41.4283 41.4283C43.9288 38.9278 45.3335 35.5364 45.3335 32.0002C45.3335 28.4639 43.9288 25.0726 41.4283 22.5721C38.9278 20.0716 35.5364 18.6668 32.0002 18.6668ZM32.0002 24.0002C33.0508 24 34.0911 24.2067 35.0618 24.6086C36.0325 25.0105 36.9145 25.5996 37.6575 26.3424C38.4005 27.0851 38.9899 27.9669 39.3921 28.9375C39.7943 29.908 40.0014 30.9483 40.0015 31.9988C40.0017 33.0494 39.795 34.0897 39.3931 35.0604C38.9912 36.0311 38.4021 36.9131 37.6593 37.6561C36.9166 38.3991 36.0348 38.9885 35.0642 39.3907C34.0937 39.7929 33.0535 40 32.0029 40.0002C29.8811 40.0002 27.8463 39.1573 26.346 37.657C24.8457 36.1567 24.0029 34.1219 24.0029 32.0002C24.0029 29.8784 24.8457 27.8436 26.346 26.3433C27.8463 24.843 29.8811 24.0002 32.0029 24.0002M46.0029 14.6668C45.1188 14.6668 44.271 15.018 43.6459 15.6431C43.0207 16.2683 42.6695 17.1161 42.6695 18.0002C42.6695 18.8842 43.0207 19.7321 43.6459 20.3572C44.271 20.9823 45.1188 21.3335 46.0029 21.3335C46.8869 21.3335 47.7348 20.9823 48.3599 20.3572C48.985 19.7321 49.3362 18.8842 49.3362 18.0002C49.3362 17.1161 48.985 16.2683 48.3599 15.6431C47.7348 15.018 46.8869 14.6668 46.0029 14.6668Z" fill="white"/>
</svg>
