<svg width="384" height="58" viewBox="0 0 384 58" fill="none" xmlns="http://www.w3.org/2000/svg">
<path d="M28.685 1.49676e-05C32.9368 -0.00435634 37.1362 0.948814 40.9781 2.79028C44.82 4.63175 48.2079 7.31528 50.8958 10.6459L32.741 29L50.8958 47.3541C48.2079 50.6847 44.82 53.3682 40.9781 55.2097C37.1362 57.0512 32.9368 58.0044 28.685 58C12.8423 58 0 45.0167 0 29C0 12.9833 12.8423 1.49676e-05 28.685 1.49676e-05ZM28.685 8.70001C27.5438 8.70001 26.4494 9.15831 25.6425 9.97409C24.8356 10.7899 24.3822 11.8963 24.3822 13.05C24.3822 14.2037 24.8356 15.3101 25.6425 16.1259C26.4494 16.9417 27.5438 17.4 28.685 17.4C29.8261 17.4 30.9206 16.9417 31.7275 16.1259C32.5344 15.3101 32.9877 14.2037 32.9877 13.05C32.9877 11.8963 32.5344 10.7899 31.7275 9.97409C30.9206 9.15831 29.8261 8.70001 28.685 8.70001Z" fill="white"/>
<path d="M66.9392 45.9053V41.9991H63.0077V14.3133H66.9392V10.3386H70.8029V6.36395H94.3242V10.3386H98.188V14.3133H102.119V22.1942H90.3927V14.3133H74.7344V41.9991H90.3927V34.0497H78.666V26.1689H102.119V41.9991H98.188V45.9053H94.3242V49.88H70.8029V45.9053H66.9392Z" fill="white"/>
<path d="M125.028 45.9053V38.0244H113.301V45.9053H125.028ZM125.028 22.1942H113.301V30.075H105.506V22.1942H109.437V18.2195H128.959V22.1942H132.891V26.1689H136.754V49.88H109.437V45.9053H105.506V38.0244H109.437V34.0497H125.028V22.1942Z" fill="white"/>
<path d="M198.828 22.1942V26.1689H202.759V49.88H191.033V22.1942H179.306V49.88H167.579V22.1942H155.852V49.88H144.125V22.1942H140.194V18.2195H171.443V22.1942H175.374V18.2195H194.964V22.1942H198.828Z" fill="white"/>
<path d="M217.852 22.1942V30.075H229.579V22.1942H217.852ZM217.852 45.9053H229.579V38.0244H237.442V45.9053H233.51V49.88H213.92V45.9053H210.057V41.9991H206.125V26.1689H210.057V22.1942H213.92V18.2195H233.51V22.1942H237.442V34.0497H217.852V45.9053Z" fill="white"/>
<path d="M240.744 49.88V6.36395H248.539V10.3386H252.471V14.3133H256.402V18.2195H260.266V22.1942H264.198V26.1689H268.129V10.3386H271.993V6.36395H279.856V49.88H268.129V38.0244H264.198V34.0497H260.266V30.1436H256.402V26.1689H252.471V49.88H240.744Z" fill="white"/>
<path d="M295.037 22.1942V30.075H306.763V22.1942H295.037ZM295.037 45.9053H306.763V38.0244H314.626V45.9053H310.695V49.88H291.105V45.9053H287.241V41.9991H283.31V26.1689H287.241V22.1942H291.105V18.2195H310.695V22.1942H314.626V34.0497H295.037V45.9053Z" fill="white"/>
<path d="M345.382 18.288V22.1942H349.313V30.1436H341.45V22.1942H329.723V26.1689H333.655V30.1436H337.519V34.0497H341.45V38.0244H345.382V41.9991H349.313V45.9053H345.382V49.88H321.928V45.9053H317.997V38.0244H325.792V45.9053H337.519V41.9991H333.655V38.0244H329.723V34.0497H325.792V30.1436H321.928V26.1689H317.997V22.1942H321.928V18.288H345.382Z" fill="white"/>
<path d="M376.137 38.0244H384V45.9053H380.068V49.88H356.615V45.9053H352.683V18.288H356.615V14.3133H360.479V10.3386H364.41V18.288H376.137V22.1942H364.41V45.9053H376.137V38.0244Z" fill="white"/>
</svg>
