<svg width="56" height="56" viewBox="0 0 56 56" fill="none" xmlns="http://www.w3.org/2000/svg">
<path fill-rule="evenodd" clip-rule="evenodd" d="M14.628 1.9C18.924 1.42 23.408 1 28 1C32.592 1 37.076 1.42 41.372 1.9C44.6372 2.2744 47.6788 3.74549 49.9995 6.07274C52.3203 8.4 53.7828 11.4457 54.148 14.712C54.608 18.988 55 23.44 55 28C55 32.56 54.608 37.012 54.148 41.288C53.7828 44.5543 52.3203 47.6 49.9995 49.9273C47.6788 52.2545 44.6372 53.7256 41.372 54.1C37.076 54.58 32.592 55 28 55C23.408 55 18.924 54.58 14.628 54.1C11.3628 53.7256 8.32117 52.2545 6.00045 49.9273C3.67973 47.6 2.21721 44.5543 1.852 41.288C1.392 37.012 1 32.56 1 28C1 23.44 1.392 18.988 1.852 14.712C2.21721 11.4457 3.67973 8.4 6.00045 6.07274C8.32117 3.74549 11.3628 2.2744 14.628 1.9ZM33.328 11.528C33.1899 10.9295 32.8363 10.4028 32.3347 10.0483C31.833 9.69386 31.2185 9.53648 30.6082 9.60621C29.9979 9.67594 29.4347 9.9679 29.0259 10.4264C28.6172 10.8849 28.3915 11.4778 28.392 12.092V35.2C28.392 36.4278 28.0279 37.6281 27.3458 38.649C26.6636 39.6699 25.6941 40.4656 24.5597 40.9354C23.4253 41.4053 22.1771 41.5283 20.9729 41.2887C19.7686 41.0492 18.6625 40.4579 17.7943 39.5897C16.9261 38.7215 16.3348 37.6154 16.0953 36.4111C15.8557 35.2069 15.9787 33.9587 16.4486 32.8243C16.9184 31.6899 17.7141 30.7204 18.735 30.0382C19.7559 29.3561 20.9562 28.992 22.184 28.992C22.847 28.992 23.4829 28.7286 23.9518 28.2598C24.4206 27.7909 24.684 27.155 24.684 26.492C24.684 25.829 24.4206 25.1931 23.9518 24.7242C23.4829 24.2554 22.847 23.992 22.184 23.992C19.9673 23.992 17.8003 24.6493 15.9572 25.8809C14.114 27.1124 12.6775 28.8629 11.8292 30.9109C10.9809 32.9589 10.7589 35.2124 11.1914 37.3866C11.6238 39.5607 12.6913 41.5578 14.2587 43.1253C15.8262 44.6927 17.8233 45.7602 19.9974 46.1926C22.1716 46.6251 24.4251 46.4031 26.4731 45.5548C28.5211 44.7065 30.2716 43.27 31.5031 41.4268C32.7347 39.5837 33.392 37.4167 33.392 35.2V21.24C35.792 23.28 38.888 24.4 42.52 24.4C43.183 24.4 43.8189 24.1366 44.2878 23.6678C44.7566 23.1989 45.02 22.563 45.02 21.9C45.02 21.237 44.7566 20.6011 44.2878 20.1322C43.8189 19.6634 43.183 19.4 42.52 19.4C39.88 19.4 37.92 18.584 36.476 17.3C35.004 15.988 33.912 14.036 33.328 11.528Z" fill="white"/>
</svg>
