<svg width="1920" height="857" viewBox="0 0 1920 857" fill="none" xmlns="http://www.w3.org/2000/svg">
<g opacity="0.25">
<path d="M0 0H1935.06V2H0V0Z" fill="#20244C"/>
<path d="M0 5H1935.06V7H0V5Z" fill="#20244C"/>
<path d="M0 10H1935.06V12H0V10Z" fill="#20244C"/>
<path d="M0 15H1935.06V17H0V15Z" fill="#20244C"/>
<path d="M0 20H1935.06V22H0V20Z" fill="#20244C"/>
<path d="M0 25H1935.06V27H0V25Z" fill="#20244C"/>
<path d="M0 30H1935.06V32H0V30Z" fill="#20244C"/>
<path d="M0 35H1935.06V37H0V35Z" fill="#20244C"/>
<path d="M0 40H1935.06V42H0V40Z" fill="#20244C"/>
<path d="M0 45H1935.06V47H0V45Z" fill="#20244C"/>
<path d="M0 50H1935.06V52H0V50Z" fill="#20244C"/>
<path d="M0 55H1935.06V57H0V55Z" fill="#20244C"/>
<path d="M0 60H1935.06V62H0V60Z" fill="#20244C"/>
<path d="M0 65H1935.06V67H0V65Z" fill="#20244C"/>
<path d="M0 70H1935.06V72H0V70Z" fill="#20244C"/>
<path d="M0 75H1935.06V77H0V75Z" fill="#20244C"/>
<path d="M0 80H1935.06V82H0V80Z" fill="#20244C"/>
<path d="M0 85H1935.06V87H0V85Z" fill="#20244C"/>
<path d="M0 90H1935.06V92H0V90Z" fill="#20244C"/>
<path d="M0 95H1935.06V97H0V95Z" fill="#20244C"/>
<path d="M0 100H1935.06V102H0V100Z" fill="#20244C"/>
<path d="M0 105H1935.06V107H0V105Z" fill="#20244C"/>
<path d="M0 110H1935.06V112H0V110Z" fill="#20244C"/>
<path d="M0 115H1935.06V117H0V115Z" fill="#20244C"/>
<path d="M0 120H1935.06V122H0V120Z" fill="#20244C"/>
<path d="M0 125H1935.06V127H0V125Z" fill="#20244C"/>
<path d="M0 130H1935.06V132H0V130Z" fill="#20244C"/>
<path d="M0 135H1935.06V137H0V135Z" fill="#20244C"/>
<path d="M0 140H1935.06V142H0V140Z" fill="#20244C"/>
<path d="M0 145H1935.06V147H0V145Z" fill="#20244C"/>
<path d="M0 150H1935.06V152H0V150Z" fill="#20244C"/>
<path d="M0 155H1935.06V157H0V155Z" fill="#20244C"/>
<path d="M0 160H1935.06V162H0V160Z" fill="#20244C"/>
<path d="M0 165H1935.06V167H0V165Z" fill="#20244C"/>
<path d="M0 170H1935.06V172H0V170Z" fill="#20244C"/>
<path d="M0 175H1935.06V177H0V175Z" fill="#20244C"/>
<path d="M0 180H1935.06V182H0V180Z" fill="#20244C"/>
<path d="M0 185H1935.06V187H0V185Z" fill="#20244C"/>
<path d="M0 190H1935.06V192H0V190Z" fill="#20244C"/>
<path d="M0 195H1935.06V197H0V195Z" fill="#20244C"/>
<path d="M0 200H1935.06V202H0V200Z" fill="#20244C"/>
<path d="M0 205H1935.06V207H0V205Z" fill="#20244C"/>
<path d="M0 210H1935.06V212H0V210Z" fill="#20244C"/>
<path d="M0 215H1935.06V217H0V215Z" fill="#20244C"/>
<path d="M0 220H1935.06V222H0V220Z" fill="#20244C"/>
<path d="M0 225H1935.06V227H0V225Z" fill="#20244C"/>
<path d="M0 230H1935.06V232H0V230Z" fill="#20244C"/>
<path d="M0 235H1935.06V237H0V235Z" fill="#20244C"/>
<path d="M0 240H1935.06V242H0V240Z" fill="#20244C"/>
<path d="M0 245H1935.06V247H0V245Z" fill="#20244C"/>
<path d="M0 250H1935.06V252H0V250Z" fill="#20244C"/>
<path d="M0 255H1935.06V257H0V255Z" fill="#20244C"/>
<path d="M0 260H1935.06V262H0V260Z" fill="#20244C"/>
<path d="M0 265H1935.06V267H0V265Z" fill="#20244C"/>
<path d="M0 270H1935.06V272H0V270Z" fill="#20244C"/>
<path d="M0 275H1935.06V277H0V275Z" fill="#20244C"/>
<path d="M0 280H1935.06V282H0V280Z" fill="#20244C"/>
<path d="M0 285H1935.06V287H0V285Z" fill="#20244C"/>
<path d="M0 290H1935.06V292H0V290Z" fill="#20244C"/>
<path d="M0 295H1935.06V297H0V295Z" fill="#20244C"/>
<path d="M0 300H1935.06V302H0V300Z" fill="#20244C"/>
<path d="M0 305H1935.06V307H0V305Z" fill="#20244C"/>
<path d="M0 310H1935.06V312H0V310Z" fill="#20244C"/>
<path d="M0 315H1935.06V317H0V315Z" fill="#20244C"/>
<path d="M0 320H1935.06V322H0V320Z" fill="#20244C"/>
<path d="M0 325H1935.06V327H0V325Z" fill="#20244C"/>
<path d="M0 330H1935.06V332H0V330Z" fill="#20244C"/>
<path d="M0 335H1935.06V337H0V335Z" fill="#20244C"/>
<path d="M0 340H1935.06V342H0V340Z" fill="#20244C"/>
<path d="M0 345H1935.06V347H0V345Z" fill="#20244C"/>
<path d="M0 350H1935.06V352H0V350Z" fill="#20244C"/>
<path d="M0 355H1935.06V357H0V355Z" fill="#20244C"/>
<path d="M0 360H1935.06V362H0V360Z" fill="#20244C"/>
<path d="M0 365H1935.06V367H0V365Z" fill="#20244C"/>
<path d="M0 370H1935.06V372H0V370Z" fill="#20244C"/>
<path d="M0 375H1935.06V377H0V375Z" fill="#20244C"/>
<path d="M0 380H1935.06V382H0V380Z" fill="#20244C"/>
<path d="M0 385H1935.06V387H0V385Z" fill="#20244C"/>
<path d="M0 390H1935.06V392H0V390Z" fill="#20244C"/>
<path d="M0 395H1935.06V397H0V395Z" fill="#20244C"/>
<path d="M0 400H1935.06V402H0V400Z" fill="#20244C"/>
<path d="M0 405H1935.06V407H0V405Z" fill="#20244C"/>
<path d="M0 410H1935.06V412H0V410Z" fill="#20244C"/>
<path d="M0 415H1935.06V417H0V415Z" fill="#20244C"/>
<path d="M0 420H1935.06V422H0V420Z" fill="#20244C"/>
<path d="M0 425H1935.06V427H0V425Z" fill="#20244C"/>
<path d="M0 430H1935.06V432H0V430Z" fill="#20244C"/>
<path d="M0 435H1935.06V437H0V435Z" fill="#20244C"/>
<path d="M0 440H1935.06V442H0V440Z" fill="#20244C"/>
<path d="M0 445H1935.06V447H0V445Z" fill="#20244C"/>
<path d="M0 450H1935.06V452H0V450Z" fill="#20244C"/>
<path d="M0 455H1935.06V457H0V455Z" fill="#20244C"/>
<path d="M0 460H1935.06V462H0V460Z" fill="#20244C"/>
<path d="M0 465H1935.06V467H0V465Z" fill="#20244C"/>
<path d="M0 470H1935.06V472H0V470Z" fill="#20244C"/>
<path d="M0 475H1935.06V477H0V475Z" fill="#20244C"/>
<path d="M0 480H1935.06V482H0V480Z" fill="#20244C"/>
<path d="M0 485H1935.06V487H0V485Z" fill="#20244C"/>
<path d="M0 490H1935.06V492H0V490Z" fill="#20244C"/>
<path d="M0 495H1935.06V497H0V495Z" fill="#20244C"/>
<path d="M0 500H1935.06V502H0V500Z" fill="#20244C"/>
<path d="M0 505H1935.06V507H0V505Z" fill="#20244C"/>
<path d="M0 510H1935.06V512H0V510Z" fill="#20244C"/>
<path d="M0 515H1935.06V517H0V515Z" fill="#20244C"/>
<path d="M0 520H1935.06V522H0V520Z" fill="#20244C"/>
<path d="M0 525H1935.06V527H0V525Z" fill="#20244C"/>
<path d="M0 530H1935.06V532H0V530Z" fill="#20244C"/>
<path d="M0 535H1935.06V537H0V535Z" fill="#20244C"/>
<path d="M0 540H1935.06V542H0V540Z" fill="#20244C"/>
<path d="M0 545H1935.06V547H0V545Z" fill="#20244C"/>
<path d="M0 550H1935.06V552H0V550Z" fill="#20244C"/>
<path d="M0 555H1935.06V557H0V555Z" fill="#20244C"/>
<path d="M0 560H1935.06V562H0V560Z" fill="#20244C"/>
<path d="M0 565H1935.06V567H0V565Z" fill="#20244C"/>
<path d="M0 570H1935.06V572H0V570Z" fill="#20244C"/>
<path d="M0 575H1935.06V577H0V575Z" fill="#20244C"/>
<path d="M0 580H1935.06V582H0V580Z" fill="#20244C"/>
<path d="M0 585H1935.06V587H0V585Z" fill="#20244C"/>
<path d="M0 590H1935.06V592H0V590Z" fill="#20244C"/>
<path d="M0 595H1935.06V597H0V595Z" fill="#20244C"/>
<path d="M0 600H1935.06V602H0V600Z" fill="#20244C"/>
<path d="M0 605H1935.06V607H0V605Z" fill="#20244C"/>
<path d="M0 610H1935.06V612H0V610Z" fill="#20244C"/>
<path d="M0 615H1935.06V617H0V615Z" fill="#20244C"/>
<path d="M0 620H1935.06V622H0V620Z" fill="#20244C"/>
<path d="M0 625H1935.06V627H0V625Z" fill="#20244C"/>
<path d="M0 630H1935.06V632H0V630Z" fill="#20244C"/>
<path d="M0 635H1935.06V637H0V635Z" fill="#20244C"/>
<path d="M0 640H1935.06V642H0V640Z" fill="#20244C"/>
<path d="M0 645H1935.06V647H0V645Z" fill="#20244C"/>
<path d="M0 650H1935.06V652H0V650Z" fill="#20244C"/>
<path d="M0 655H1935.06V657H0V655Z" fill="#20244C"/>
<path d="M0 660H1935.06V662H0V660Z" fill="#20244C"/>
<path d="M0 665H1935.06V667H0V665Z" fill="#20244C"/>
<path d="M0 670H1935.06V672H0V670Z" fill="#20244C"/>
<path d="M0 675H1935.06V677H0V675Z" fill="#20244C"/>
<path d="M0 680H1935.06V682H0V680Z" fill="#20244C"/>
<path d="M0 685H1935.06V687H0V685Z" fill="#20244C"/>
<path d="M0 690H1935.06V692H0V690Z" fill="#20244C"/>
<path d="M0 695H1935.06V697H0V695Z" fill="#20244C"/>
<path d="M0 700H1935.06V702H0V700Z" fill="#20244C"/>
<path d="M0 705H1935.06V707H0V705Z" fill="#20244C"/>
<path d="M0 710H1935.06V712H0V710Z" fill="#20244C"/>
<path d="M0 715H1935.06V717H0V715Z" fill="#20244C"/>
<path d="M0 720H1935.06V722H0V720Z" fill="#20244C"/>
<path d="M0 725H1935.06V727H0V725Z" fill="#20244C"/>
<path d="M0 730H1935.06V732H0V730Z" fill="#20244C"/>
<path d="M0 735H1935.06V737H0V735Z" fill="#20244C"/>
<path d="M0 740H1935.06V742H0V740Z" fill="#20244C"/>
<path d="M0 745H1935.06V747H0V745Z" fill="#20244C"/>
<path d="M0 750H1935.06V752H0V750Z" fill="#20244C"/>
<path d="M0 755H1935.06V757H0V755Z" fill="#20244C"/>
<path d="M0 760H1935.06V762H0V760Z" fill="#20244C"/>
<path d="M0 765H1935.06V767H0V765Z" fill="#20244C"/>
<path d="M0 770H1935.06V772H0V770Z" fill="#20244C"/>
<path d="M0 775H1935.06V777H0V775Z" fill="#20244C"/>
<path d="M0 780H1935.06V782H0V780Z" fill="#20244C"/>
<path d="M0 785H1935.06V787H0V785Z" fill="#20244C"/>
<path d="M0 790H1935.06V792H0V790Z" fill="#20244C"/>
<path d="M0 795H1935.06V797H0V795Z" fill="#20244C"/>
<path d="M0 800H1935.06V802H0V800Z" fill="#20244C"/>
<path d="M0 805H1935.06V807H0V805Z" fill="#20244C"/>
<path d="M0 810H1935.06V812H0V810Z" fill="#20244C"/>
<path d="M0 815H1935.06V817H0V815Z" fill="#20244C"/>
<path d="M0 820H1935.06V822H0V820Z" fill="#20244C"/>
<path d="M0 825H1935.06V827H0V825Z" fill="#20244C"/>
<path d="M0 830H1935.06V832H0V830Z" fill="#20244C"/>
<path d="M0 835H1935.06V837H0V835Z" fill="#20244C"/>
<path d="M0 840H1935.06V842H0V840Z" fill="#20244C"/>
<path d="M0 845H1935.06V847H0V845Z" fill="#20244C"/>
<path d="M0 850H1935.06V852H0V850Z" fill="#20244C"/>
<path d="M0 855H2913V857H0V855Z" fill="#20244C"/>
</g>
</svg>
