<svg width="74" height="74" viewBox="0 0 74 74" fill="none" xmlns="http://www.w3.org/2000/svg">
<path d="M30.8337 46.2498L46.8362 36.9998L30.8337 27.7498V46.2498ZM66.477 22.1073C66.8778 23.5565 67.1553 25.499 67.3403 27.9657C67.5562 30.4323 67.6487 32.5598 67.6487 34.4098L67.8337 36.9998C67.8337 43.7523 67.3403 48.7165 66.477 51.8923C65.7062 54.6673 63.9178 56.4557 61.1428 57.2265C59.6937 57.6273 57.042 57.9048 52.972 58.0898C48.9637 58.3057 45.2945 58.3982 41.9028 58.3982L37.0003 58.5832C24.0812 58.5832 16.0337 58.0898 12.8578 57.2265C10.0828 56.4557 8.29449 54.6673 7.52366 51.8923C7.12283 50.4432 6.84533 48.5007 6.66033 46.034C6.44449 43.5673 6.35199 41.4398 6.35199 39.5898L6.16699 36.9998C6.16699 30.2473 6.66033 25.2832 7.52366 22.1073C8.29449 19.3323 10.0828 17.544 12.8578 16.7732C14.307 16.3723 16.9587 16.0948 21.0287 15.9098C25.037 15.694 28.7062 15.6015 32.0978 15.6015L37.0003 15.4165C49.9195 15.4165 57.967 15.9098 61.1428 16.7732C63.9178 17.544 65.7062 19.3323 66.477 22.1073Z" fill="white"/>
</svg>
